<svg width="100" height="100" viewBox="0 0 100 100" fill="none" xmlns="http://www.w3.org/2000/svg">
<path fill-rule="evenodd" clip-rule="evenodd" d="M49.7304 99.4614C22.3094 99.4614 0 77.1521 0 49.7304C0 22.3088 22.3094 0 49.7304 0C77.1521 0 99.4614 22.3088 99.4614 49.7304C99.4614 77.1521 77.1521 99.4614 49.7304 99.4614" fill="#E40000"/>
<path fill-rule="evenodd" clip-rule="evenodd" d="M80.2678 76.445C80.3193 76.4965 80.3708 76.4965 80.4228 76.4965C80.5263 76.4965 80.5778 76.4965 80.6819 76.393C80.7848 76.2895 80.7848 76.083 80.6819 75.9795C74.5269 69.514 66.9754 64.2906 58.5456 60.9292C55.9596 59.8947 55.9596 59.8947 55.9596 59.8947C54.6146 59.3251 53.7351 58.0322 53.7351 56.5327C53.8906 50.9988 66.924 52.1362 68.269 49.4988C68.476 49.0333 68.476 49.0333 68.476 49.0333C65.7865 46.7058 62.631 44.9994 59.1146 44.0169C59.0626 44.1719 58.9591 44.7924 59.683 45.9819C60.4596 47.2234 58.8556 49.2403 56.4766 47.0678C56.2696 46.9129 56.2696 46.9129 56.2696 46.9129C38.9953 31.0865 31.031 41.5339 19.2906 23.1222C19.1871 22.9667 19.0322 22.9152 18.8766 23.0187C18.7216 23.1222 18.6696 23.2772 18.7216 23.4322C27.9795 45.7234 46.9088 41.017 49.1327 61.8076C49.2363 62.5842 49.8047 63.2047 50.5807 63.3082C61.0795 64.9631 71.3205 69.3076 80.2164 76.445H80.2678" fill="#FFFFFE"/>
</svg>
